<?xml version="1.0" encoding="UTF-8"?><!DOCTYPE svg PUBLIC "-//W3C//DTD SVG 1.1//EN" "http://www.w3.org/Graphics/SVG/1.1/DTD/svg11.dtd"><svg xmlns="http://www.w3.org/2000/svg"><symbol id="ico-people" viewBox="0 0 512.000000 512.000000">
    <path d="M230.5.7C163.4 7.9 102.6 40 59.8 91 29.7 126.8 11 167.4 2.7 215 .8 225.9.6 231.2.6 256s.2 30.1 2.1 41c9.4 54 32 98.7 69.3 137.4 38.3 39.8 86.6 65 143 74.9 10.9 1.9 16.2 2.1 41 2.1 31.3 0 40.7-1 65.3-7.3 88.2-22.8 160-94.6 182.8-182.8 6.3-24.6 7.3-34 7.3-65.3 0-31.3-1-40.7-7.3-65.3-22.8-88.1-94.6-160-182.8-182.8C298.6 2.1 287.9.8 260 .5c-14-.2-27.3-.1-29.5.2zM290 18.5c42.3 6.4 83.1 24.2 116.5 51 9.5 7.6 27.3 25.3 35.2 35 22.5 27.8 39.6 62.4 47.7 96.5 4.7 19.7 6 31.9 6 55s-1.3 35.3-6 55c-9.3 39.5-31.3 80.5-58.2 108.3-9.3 9.7-20.2 19.8-26.7 24.9l-6.1 4.6-9.9-4.2c-44.1-18.7-57.4-33.2-60-65.3-1.1-13-.2-16.8 7.1-29 7.6-12.7 11.4-22.2 14.6-36.3l2.3-10.3 6.7-4.3c7.5-4.8 10.8-9 13.8-17.9 5.5-15.9 4.8-33.4-1.6-44.1l-3.4-5.6 1.5-12.7c1.7-14.5 2-43.4.5-56.6-1.5-12.8-4.6-24.7-9.1-34.4-3.1-6.7-5.4-9.8-11.6-16.1-11-10.9-23.6-16.6-40.8-18.6-4.3-.5-7-1.5-9.5-3.4-25.4-19.8-84.2-16.2-122.7 7.6-4.4 2.7-11.3 8.3-15.9 13-6.7 6.8-9 9.9-13.2 18.5-5.9 12.1-7.7 18.4-9.3 33-1.4 12.7-.2 30.9 3.6 54.9l2.4 15.5-2.4 3.5c-4.4 6.3-5.8 11.8-5.9 22.5-.1 12.1 2.4 23.4 6.8 30.8 2.3 3.8 5 6.4 10.1 9.8l6.9 4.6 2.6 10.9c3.5 14.8 6.8 23 14.4 35.7 7.3 12.2 8.2 16 7.1 29-2.6 32.1-15.9 46.6-60 65.3l-9.9 4.2-6.1-4.6c-11-8.5-28.5-25.9-38.1-37.9C42.6 373.1 25 332.5 18.3 289c-2.4-15.9-2.4-50.1 0-66 6.8-44.1 24.5-84.5 52-118.5 7.9-9.7 25.7-27.4 35.2-35 36.8-29.5 81-47.6 128-52.4 12.3-1.3 43.7-.5 56.5 1.4zm-22.5 76.6c8.8 1.4 18.1 5.1 22 8.8 4.5 4.3 6.8 5.1 16.5 6.2 21.6 2.2 36.6 13.5 42.7 32 6.1 18.5 7.6 51.3 3.8 81.7l-1.9 15.2 3.7 3.8c2 2 4.1 5 4.7 6.7 2.2 5.8.9 20.9-2.4 28.8-1.4 3.6-2.8 4.8-10.9 9.7-6.3 4-7.9 7-11.7 21.9-3.8 15.3-7.1 23.2-13.8 33.4-7.5 11.4-8.5 16-7.9 34.2.6 16.6 2.4 25 7.9 35.8 8.4 16.8 21.2 27.5 48.7 40.9l12.3 6-5.8 3.5c-39.5 23.8-93.1 35.8-140 31.2-35.9-3.4-71.2-14.6-98.8-31.2l-5.7-3.4 15.3-7.7c30.4-15.1 44.1-29.3 50.8-52.6 1.6-5.6 2.3-11.3 2.7-22.5.6-18.2-.4-22.8-7.9-34.2-7-10.7-9.5-16.6-13.4-32.1-4.7-18.5-4.9-18.8-16.9-26.5-6.1-3.9-8.5-9.4-9.2-21.3-.8-11.3.1-14.8 4.8-19.7 2.6-2.8 3.9-5 3.9-6.9 0-1.5-1.4-11.4-3.2-22-2.8-16.9-3.2-21.7-3.3-38.3 0-17.2.2-19.7 2.3-26.5 6.4-20.4 17.6-33.3 37.7-43.2 22.3-11.1 49.2-15.4 73-11.7z"/>
</symbol></svg>